<svg width="16" height="14" viewBox="0 0 16 14" xmlns="http://www.w3.org/2000/svg"><title>Twitter</title><path d="M16 1.624a6.275 6.275 0 0 1-1.885.544A3.442 3.442 0 0 0 15.56.254a6.36 6.36 0 0 1-2.086.839A3.198 3.198 0 0 0 11.077 0C9.265 0 7.796 1.55 7.796 3.462c0 .271.028.535.084.788C5.152 4.106 2.734 2.73 1.114.632A3.604 3.604 0 0 0 .67 2.374c0 1.2.579 2.26 1.46 2.882a3.156 3.156 0 0 1-1.488-.432v.043c0 1.678 1.132 3.077 2.635 3.394a3.103 3.103 0 0 1-1.483.06c.418 1.376 1.63 2.377 3.066 2.404A6.371 6.371 0 0 1 0 12.16a8.96 8.96 0 0 0 5.032 1.554c6.038 0 9.34-5.274 9.34-9.85 0-.15-.003-.301-.009-.449A6.854 6.854 0 0 0 16 1.624" fill="#2B2B33" fill-rule="evenodd"/></svg>