<svg width="24" height="24" viewBox="0 0 24 24" fill="none" xmlns="http://www.w3.org/2000/svg">
  <rect x="1" y="5" width="22" height="14" rx="2" stroke="#e9e9e9" stroke-width="1.5"/>
  <rect x="3.5" y="7" width="3" height="2.5" rx="0.5" fill="#e9e9e9"/>
  <rect x="7" y="7" width="3" height="2.5" rx="0.5" fill="#e9e9e9"/>
  <rect x="10.5" y="7" width="3" height="2.5" rx="0.5" fill="#e9e9e9"/>
  <rect x="14" y="7" width="3" height="2.5" rx="0.5" fill="#e9e9e9"/>
  <rect x="17.5" y="7" width="3" height="2.5" rx="0.5" fill="#e9e9e9"/>
  <rect x="3.5" y="10.5" width="3" height="2.5" rx="0.5" fill="#e9e9e9"/>
  <rect x="7" y="10.5" width="3" height="2.5" rx="0.5" fill="#e9e9e9"/>
  <rect x="10.5" y="10.5" width="3" height="2.5" rx="0.5" fill="#e9e9e9"/>
  <rect x="14" y="10.5" width="3" height="2.5" rx="0.5" fill="#e9e9e9"/>
  <rect x="17.5" y="10.5" width="3" height="2.5" rx="0.5" fill="#e9e9e9"/>
  <rect x="7" y="14" width="10" height="2.5" rx="0.5" fill="#e9e9e9"/>
</svg>
