<?xml version="1.0" encoding="UTF-8" standalone="no"?>
<svg width="14px" height="16px" viewBox="0 0 14 16" version="1.1" xmlns="http://www.w3.org/2000/svg" xmlns:xlink="http://www.w3.org/1999/xlink">
    <!-- Generator: Sketch 39.1 (31720) - http://www.bohemiancoding.com/sketch -->
    <title>Combined Shape</title>
    <desc>Created with Sketch.</desc>
    <defs></defs>
    <g id="Profile" stroke="none" stroke-width="1" fill="none" fill-rule="evenodd">
        <g id="3---Profile-Expanded---Recruiting-Activity---Leave-a-Note" transform="translate(-195.000000, -353.000000)" fill="#2B2B33">
            <path d="M206.82295,367.572245 L206.82295,363.289375 L208.301861,363.289375 L208.301861,369 L195,369 L195,363.289375 L196.478911,363.289375 L196.478911,367.572245 L206.82295,367.572245 Z M197.959468,366.144504 L205.354038,366.144504 L205.354038,364.716967 L197.959468,364.716967 L197.959468,366.144504 Z M204.586836,353 L203.400166,353.851929 L207.813344,359.579155 L209,358.727212 L204.586836,353 Z M200.918781,356.376508 L206.600855,360.944345 L207.547302,359.847358 L201.865228,355.279548 L200.918781,356.376508 Z M199.063799,359.550839 L205.767079,362.564259 L206.391444,361.270185 L199.688164,358.256765 L199.063799,359.550839 Z M198.106313,362.895447 L205.342829,364.363504 L205.646996,362.966454 L198.410479,361.498397 L198.106313,362.895447 Z" id="Combined-Shape"></path>
        </g>
    </g>
</svg>